<?xml version="1.0" encoding="UTF-8" standalone="no"?>
<!-- Created with Inkscape (http://www.inkscape.org/) -->

<svg
   width="196"
   height="196"
   viewBox="0 0 51.858332 51.858365"
   version="1.1"
   id="svg1"
   inkscape:version="1.3 (1:1.3+202307231459+0e150ed6c4)"
   sodipodi:docname="icon.svg"
   inkscape:export-filename="numbat-196x196.png"
   inkscape:export-xdpi="96"
   inkscape:export-ydpi="96"
   xmlns:inkscape="http://www.inkscape.org/namespaces/inkscape"
   xmlns:sodipodi="http://sodipodi.sourceforge.net/DTD/sodipodi-0.dtd"
   xmlns="http://www.w3.org/2000/svg"
   xmlns:svg="http://www.w3.org/2000/svg">
  <sodipodi:namedview
     id="namedview1"
     pagecolor="#ffffff"
     bordercolor="#666666"
     borderopacity="1.0"
     inkscape:showpageshadow="2"
     inkscape:pageopacity="0.0"
     inkscape:pagecheckerboard="0"
     inkscape:deskcolor="#d1d1d1"
     inkscape:document-units="mm"
     inkscape:zoom="4"
     inkscape:cx="241.375"
     inkscape:cy="122.125"
     inkscape:window-width="2560"
     inkscape:window-height="1417"
     inkscape:window-x="1920"
     inkscape:window-y="0"
     inkscape:window-maximized="1"
     inkscape:current-layer="layer1"
     inkscape:export-bgcolor="#ffffff00" />
  <defs
     id="defs1" />
  <g
     inkscape:label="Layer 1"
     inkscape:groupmode="layer"
     id="layer1">
    <path
       id="rect1"
       style="opacity:1;fill:#ffffff;fill-opacity:1;stroke-width:0.139;stroke-linecap:round;stroke-linejoin:round;stroke-dasharray:1.06, 0.53"
       d="M 25.928327,6.9710591 C 23.104548,6.9729391 20.352261,7.4111488 17.765089,8.2383422 12.198819,10.018039 7.337527,13.560657 3.9600973,18.318531 2.2044686,20.791731 0.86048691,23.601089 0,26.639627 V 39.467522 H 51.858333 L 51.88782,26.668156 C 51.011117,23.588743 49.627911,20.720284 47.8278,18.219235 46.199728,15.957215 44.228901,13.942972 42.016227,12.294304 39.627382,10.51437 36.94606,9.126783 34.078291,8.2188487 31.488677,7.3989784 28.182861,6.9944129 25.928327,6.9710591 Z"
       sodipodi:nodetypes="cssccccsssc" />
    <g
       id="g1"
       transform="matrix(1.086773,0,0,1.086773,-24.39071,4.6476343)">
      <path
         style="fill:#7d80da;fill-opacity:1;stroke-width:0.0747403"
         d="m 21.691569,23.932271 c 0.166933,-1.194832 0.251613,-1.691392 0.407158,-2.387607 0.115674,-0.517752 0.275156,-1.141721 0.298049,-1.166089 0.01313,-0.01399 3.095452,1.094975 3.095452,1.094975 l 0.323582,-1.737456 3.271155,1.433908 c 0,0 4.289239,4.162881 -0.113724,4.09338 L 21.679043,24.022 Z m 15.921885,-0.248968 c 0.424438,-0.347706 0.986038,-0.830248 1.262062,-1.084402 0.08572,-0.07893 0.178143,-0.162256 0.205385,-0.185185 0.3148,0.0537 0.668205,0.402046 0.94437,0.600121 l -0.286846,0.241518 c -0.15777,0.132829 -0.415573,0.359658 -0.572908,0.504058 l -0.286063,0.262546 H 38.03975 37.200056 Z m 12.790431,0.325205 c 0.0026,-0.007 0.09254,-0.246869 0.20564,-0.532153 0.113107,-0.285285 0.300254,-0.76624 0.415895,-1.068791 0.115638,-0.302548 0.229437,-0.597512 0.252877,-0.655473 l 0.04262,-0.105386 0.89877,0.01616 c 0.494325,0.0089 1.533764,0.03377 2.309871,0.05529 1.765446,0.04895 4.092723,0.05594 4.49639,0.01347 0.580905,-0.06109 0.894321,-0.106026 1.291517,-0.185162 0.919651,-0.183236 1.514302,-0.415201 1.857406,-0.724535 0.0719,-0.06482 0.170438,-0.127538 0.225491,-0.143502 0.24699,-0.07164 0.424773,-0.300995 0.367605,-0.474222 -0.04135,-0.125273 -0.161745,-0.24869 -0.303978,-0.311594 -0.174391,-0.07711 -0.285815,-0.09068 -0.40548,-0.04935 -0.09911,0.03422 -0.10469,0.03309 -0.382673,-0.07757 -0.155163,-0.06177 -0.599606,-0.223016 -0.98766,-0.358342 -1.193114,-0.416079 -1.755864,-0.651631 -2.774195,-1.161244 -1.189847,-0.595442 -2.779003,-1.543833 -3.527925,-2.10543 -1.252929,-0.939543 -2.335745,-1.51707 -3.318906,-1.770141 -0.206993,-0.05328 -0.255351,-0.07377 -0.246367,-0.10443 0.0062,-0.02097 0.06071,-0.355631 0.121252,-0.743685 0.06054,-0.388051 0.136073,-0.840081 0.167844,-1.004513 0.08356,-0.43244 0.115087,-0.803325 0.09657,-1.136055 -0.04063,-0.729911 -0.18004,-1.282087 -0.579685,-2.2960379 C 50.433861,8.5963673 50.293239,8.341437 50.139593,8.2026356 49.938004,8.0205071 49.864227,8.0281002 49.675663,8.2503688 49.408491,8.5653042 49.257514,8.8299213 49.062801,9.324539 l -0.112807,0.2865717 0.09652,0.1917695 c 0.326399,0.6485158 0.521233,1.2599908 0.605976,1.9018408 0.0313,0.237031 0.03625,0.400519 0.02395,0.78926 -0.04123,1.302801 -0.05627,1.70051 -0.06466,1.708671 -0.0049,0.0049 -0.06182,0.01672 -0.126236,0.0263 l -0.11711,0.01742 0.01587,-0.58323 c 0.0088,-0.320769 0.028,-0.766919 0.04282,-0.991439 0.07613,-1.15297 -0.194194,-2.075195 -1.047748,-3.5745632 -0.218845,-0.3844353 -0.539454,-0.6946614 -0.715557,-0.6923966 -0.02858,0 -0.0909,0.059844 -0.163078,0.1556231 -0.376743,0.4999714 -0.657051,1.4676137 -0.699526,2.4148587 -0.04597,1.024889 0.313537,2.248137 1.019013,3.467299 0.0683,0.118021 0.113411,0.218181 0.100252,0.22256 -0.05747,0.01916 -0.602437,0.353554 -0.744558,0.456867 -0.08596,0.0625 -0.227495,0.143106 -0.314514,0.179154 -0.369032,0.152843 -0.774441,0.447785 -1.082125,0.787257 -0.471986,0.520753 -0.769616,0.989086 -1.462394,2.301116 -0.356485,0.675149 -0.503687,0.894582 -0.677793,1.219192 -0.04333,0.08078 -0.196165,0.374518 -0.395496,0.663862 L 43.089775,20.45926 42.006196,19.221729 C 42.39791,18.64514 42.850941,18.088481 43.129625,17.46203 45.788536,13.091497 40.978301,8.2408355 40.20843,6.9661953 c -1.369741,-2.2678176 3.051849,6.9586157 0.542265,9.5227947 -0.0084,0.0085 -4.360167,-4.436559 -6.953186,-7.3402115 -1.179982,-1.321343 -2.039005,-2.2858144 -2.04174,-2.2949869 -0.0083,-0.027826 0.908067,-0.6520512 1.493204,-1.0171957 1.262817,-0.7880373 2.753023,-1.5289324 4.167988,-2.0722309 0.502957,-0.1931176 1.074306,-0.3933339 1.085134,-0.3802632 0.0044,0.00517 0.253199,0.7117092 0.553095,1.5700285 0.299896,0.8583249 0.447561,1.1184408 0.447561,1.1184408 l 0.537788,-0.2177414 c 0,0 -0.129571,-0.2732124 -0.421546,-1.1067237 C 39.327028,3.9145914 39.092844,3.2203679 39.098598,3.205384 39.11783,3.1552471 40.253256,2.8525845 41.126846,2.6647244 42.545684,2.3596075 44.446097,2.1389622 45.66235,2.1381376 l 0.340816,-2.258e-4 V 3.824058 l 0.0022,1.1688004 h 0.597922 L 46.601089,3.824058 V 2.1379152 h 0.332184 c 1.203852,0 3.054727,0.2121996 4.493609,0.5151832 0.691035,0.1455103 1.98261,0.4775786 2.075926,0.5337271 0.01641,0.00989 -0.169482,0.5718384 -0.518863,1.5684524 -0.299451,0.854184 -0.396201,1.1706641 -0.391357,1.1785032 0.01339,0.021637 0.557846,0.2050211 0.569304,0.1917392 0.0055,-0.0064 0.109599,-0.3215467 0.407681,-1.1756273 0.29808,-0.8540796 0.545703,-1.5566107 0.550276,-1.5611818 0.01632,-0.016323 0.801816,0.2663036 1.342477,0.4830193 1.527792,0.6123885 2.802424,1.2650418 4.17351,2.136971 0.463129,0.2945155 1.219765,0.8153224 1.219765,0.8395766 0,0.00921 -0.662918,0.7583391 -1.473151,1.6645837 l -0.489916,0.5283527 0.05941,0.048584 c 0.03268,0.026725 0.134533,0.115702 0.226352,0.197755 L 59.345231,9.436736 59.83003,8.9135562 c 0.807422,-0.9033943 1.479437,-1.657714 1.493369,-1.6762736 0.02059,-0.027434 0.06971,8.504e-4 0.263086,0.1514261 1.199602,0.934225 2.51045,2.1865859 3.528699,3.3712763 0.448655,0.521987 1.218517,1.507104 1.216529,1.55668 -6.39e-4,0.01201 -0.73234,0.549126 -1.626357,1.193599 -0.894011,0.644473 -0.706542,0.506302 -0.911325,0.676685 -0.02711,0.02255 0.33154,0.463166 0.354876,0.458062 0.666014,-0.50657 0.03369,-0.01772 0.916331,-0.655885 0.882643,-0.63818 1.615309,-1.160322 1.62816,-1.160322 0.03267,0 0.558354,0.802852 0.900449,1.375224 0.859294,1.437701 1.578201,2.971891 2.129388,4.544216 0.156519,0.446492 0.299732,0.898172 0.288058,0.908525 -0.0045,0.0037 -0.970707,0.423995 -2.148025,0.934135 -1.177306,0.510135 -0.891889,0.381793 -0.903768,0.392184 -0.02091,0.0183 0.131245,0.57588 0.157861,0.566157 0.314533,-0.11489 0.419188,-0.174338 0.937199,-0.384258 1.176334,-0.476703 2.124216,-0.912013 2.133538,-0.902686 0.02915,0.02913 0.274433,1.027669 0.38738,1.57689 0.148917,0.724163 0.348143,2.002546 0.348143,2.195242 0,0.02814 -1.538517,-0.01248 -10.259358,-0.01248 -5.64321,0 -10.272287,0.01889 -10.26973,0.01196 z m -19.248417,0.192323 c -0.114779,-0.06701 -3.076828,-2.218804 -5.952102,-3.374152 -0.219493,-0.0882 -0.430274,-0.17273 -0.629804,-0.252565 -1.085232,-0.434226 -1.98226,-0.798238 -1.993395,-0.808918 -0.01112,-0.01067 0.08744,-0.340719 0.219058,-0.733423 0.576224,-1.7193 1.306643,-3.304852 2.234538,-4.850637 0.34895,-0.581315 0.852103,-1.35231 0.882513,-1.35231 0.0098,0 1.13147,0.814062 2.538632,1.828397 3.081229,2.221072 7.885798,5.689962 7.885798,5.705344 0,0.01067 -1.917058,1.504743 -3.442976,3.212169 -0.137535,0.153897 -0.39392,0.45798 -0.407659,0.457576 -0.01373,-8.31e-4 -1.314871,0.180045 -1.334603,0.168519 z M 38.983,22.500789 39.949274,21.546553 c 0.421268,-0.41602 0.63386,-0.664563 1.006814,-1.11214 0.258835,-0.310619 0.920835,-1.027729 1.050115,-1.212648 0.213159,-0.304877 1.234094,1.07372 1.083579,1.23753 -0.02706,0.02943 -0.295485,0.385303 -0.517727,0.617171 -0.291213,0.303828 -0.61744,0.575741 -0.921781,0.768316 -0.291295,0.184319 -0.73503,0.490308 -0.960837,0.662561 -0.07464,0.05693 -0.799417,0.630108 -0.810275,0.62951 z m -10.991942,-7.302485 0.803283,-1.053728 c 0,0 -2.434569,-1.754499 -2.457228,-1.771205 -0.05305,-0.0391 -0.06145,-0.05743 -0.04251,-0.09281 0.013,-0.02426 0.159002,-0.220238 0.324492,-0.435528 1.250785,-1.627133 2.629462,-3.031425 4.24832,-4.3272692 l 0.388478,-0.3109575 0.06381,0.066539 c 0.02307,0.024063 1.932857,2.1205137 1.932857,2.1205137 L 34.479176,8.5780053 40.7507,16.48902 c -1.021965,1.307808 -3.164651,2.799122 -4.409997,3.873547 -1.770814,1.527766 -6.022944,-3.722268 -8.349648,-5.164263 z"
         id="path26"
         sodipodi:nodetypes="cscccccccsssccscccssssscssssscsssssssscssssssscssssscsssccsscscsssccccsssssscsccscssccccccssssscsssssscssccscscsscssssssssscssssscssscssssscccssssssscccccscscscccsc" />
      <path
         style="fill:#ef767a;fill-opacity:1;stroke-width:0.0747403"
         d="m 18.522563,28.028053 v -4.006094 h 6.983762 c 3.841065,0 6.983746,0.0046 6.983746,0.01034 0,0.0058 -0.07994,0.102038 -0.177648,0.214108 -0.700371,0.803274 -1.63998,2.093527 -2.172044,2.982612 -0.96516,1.612816 -1.550619,3.224782 -1.610537,4.434398 -0.0072,0.144699 -0.01794,0.287303 -0.02393,0.316901 l -0.01089,0.05381 H 23.508789 18.52255 Z m 14.662184,3.981316 c -0.374499,-0.07814 -0.685876,-0.410633 -0.732268,-0.781944 -0.03637,-0.291144 0.08902,-0.999003 0.276555,-1.561059 0.577721,-1.731575 2.03396,-3.601709 4.260351,-5.471239 l 0.206217,-0.173168 h 0.841572 0.841562 l -0.352274,0.352777 c -0.565615,0.56642 -1.136736,1.159676 -1.238638,1.415892 1.426707,0.319678 3.7656,1.951735 3.71033,2.938911 -1.157603,-0.899821 -3.164552,-2.484946 -4.114003,-2.382109 -1.063348,1.424096 -1.921176,2.957124 -2.50437,4.672822 -0.09252,0.272199 -0.190109,0.530315 -0.216856,0.573603 -0.0816,0.132044 -0.299877,0.313642 -0.439983,0.366065 -0.155999,0.05836 -0.391664,0.08002 -0.538195,0.04945 z m 16.582436,-0.07687 c 0.0499,-0.330359 0.04603,-0.510095 -0.01718,-0.797616 -0.161971,-0.736933 -0.228812,-1.272471 -0.247458,-1.982733 -0.01669,-0.635831 0.0086,-0.97321 0.138433,-1.841605 0.170827,-1.143201 0.403704,-2.204157 0.648569,-2.954798 l 0.10497,-0.321825 11.843579,-0.0059 11.843564,-0.0059 v 4.006117 4.006115 H 61.91675 49.751824 Z m -9.740201,-8.915184 0.4955,-0.405051 c 1.678694,0.865113 2.734076,2.65198 2.593877,3.51688 -0.56287,-0.981897 -1.606494,-2.516298 -3.089377,-3.111829 z m 3.0628,-2.558019 c 0.08151,-0.09346 0.36182,-0.519578 0.36182,-0.519578 0,0 2.687826,2.294953 1.890643,4.296815 -0.191349,-1.689635 -1.432739,-2.859434 -2.252463,-3.777237 z m 16.737387,0.06093 c -0.346571,-0.05376 -0.589733,-0.109654 -1.171929,-0.269424 -0.309128,-0.08483 -0.992556,-0.267063 -1.51873,-0.404952 -1.237605,-0.324323 -1.632787,-0.4402 -2.403656,-0.704795 -0.871773,-0.29924 -1.008181,-0.328178 -1.686146,-0.357701 -0.302549,-0.01316 -0.667873,-0.03504 -0.811839,-0.04859 -1.04343,-0.09821 -1.69146,-0.425474 -2.19983,-1.11095 -0.07791,-0.105037 -0.188068,-0.246346 -0.244828,-0.31401 -0.11043,-0.131654 -0.344545,-0.301457 -0.42537,-0.308529 -0.160685,-0.01406 -0.750356,-0.159645 -0.801847,-0.197972 -0.08236,-0.06129 -0.116937,-0.161558 -0.07124,-0.206552 0.07095,-0.06984 0.818941,-0.187876 1.122865,-0.177181 0.134144,0.0047 0.182792,-0.0066 0.354769,-0.08294 0.269433,-0.119529 0.612035,-0.218573 0.926708,-0.267917 0.375393,-0.05886 0.939093,-0.03928 1.255486,0.0436 0.669241,0.175326 1.040035,0.441949 1.586285,1.140621 0.539194,0.689648 0.737016,0.863322 1.293946,1.135944 0.405393,0.198445 0.825771,0.360421 1.470893,0.566759 0.243355,0.07783 0.937545,0.303806 1.542645,0.502151 1.386227,0.454407 1.682873,0.545231 2.259016,0.691694 0.487106,0.123829 0.575145,0.166126 0.575145,0.276299 0,0.0323 -0.02208,0.06665 -0.05381,0.0837 -0.07864,0.04225 -0.748843,0.04947 -0.998536,0.01079 z m -7.699618,-2.013405 c 0.210385,-0.0618 0.392955,-0.172502 0.544163,-0.329972 0.578297,-0.602236 0.408208,-1.560449 -0.342515,-1.929518 -0.483973,-0.237937 -1.024498,-0.138665 -1.40234,0.257535 -0.361715,0.3793 -0.437181,0.926087 -0.194064,1.406168 0.07489,0.147875 0.340128,0.416774 0.484265,0.49094 0.277715,0.142889 0.639241,0.184518 0.910491,0.104847 z m -0.563694,-0.640682 c -0.277877,-0.131363 -0.405638,-0.419916 -0.317707,-0.717524 0.03869,-0.130967 0.242173,-0.336324 0.367814,-0.371206 0.114734,-0.03186 0.320605,-0.03432 0.320605,-0.0038 0,0.01229 -0.0097,0.04775 -0.02144,0.07876 -0.05271,0.138637 0.119436,0.306766 0.259537,0.253498 0.03343,-0.01272 0.07789,-0.03858 0.09877,-0.05748 0.03359,-0.0304 0.0415,-0.02675 0.06835,0.03156 0.04548,0.09874 0.05826,0.315046 0.02582,0.436649 -0.02059,0.07722 -0.06359,0.141558 -0.152142,0.227719 -0.19188,0.186702 -0.421378,0.229759 -0.649592,0.121873 z m -9.700171,3.833296 c 0.103016,-0.107644 0.514969,-0.430684 0.514969,-0.430684 0,0 2.246289,1.932924 1.836332,3.878702 -0.423675,-1.615825 -1.326751,-2.630191 -2.351301,-3.448018 z"
         id="path28"
         sodipodi:nodetypes="ccssscsccccccscscccscccscscssssscccccccsccccccccssssssssssscsssssssssssssssssscssssssssscccccc" />
      <path
         d="m 38.42249,24.435645 c 0.06227,-0.132605 0.384617,-0.389762 0.456246,-0.413686 0,0 3.439507,1.467024 3.09082,3.393894 -0.501524,-1.595604 -2.884796,-2.72154 -3.547066,-2.980208 z"
         style="fill:#ef767a;fill-opacity:1;stroke-width:0.0747403"
         id="path29"
         sodipodi:nodetypes="cccc" />
    </g>
    <path
       id="path3"
       style="opacity:1;fill:none;fill-opacity:1;stroke:#555796;stroke-width:1.239;stroke-linecap:butt;stroke-linejoin:round;stroke-dasharray:none;stroke-opacity:1"
       d="m 51.250983,30.756653 0.0061,-4.088497 C 50.380381,23.588743 49.627911,20.720284 47.8278,18.219235 46.199728,15.957215 44.228901,13.942972 42.016227,12.294304 39.627382,10.51437 36.94606,9.126783 34.078291,8.2188487 31.488677,7.3989784 28.182861,6.9944129 25.928327,6.9710591 23.104548,6.9729391 20.352261,7.4111488 17.765089,8.2383422 12.198819,10.018039 7.337527,13.560657 3.9600973,18.318531 2.2044686,20.791731 1.468525,23.601089 0.60803818,26.639627 l 0,4.117026"
       sodipodi:nodetypes="ccssscsscc" />
    <path
       id="path4"
       style="opacity:1;fill:none;fill-opacity:1;stroke:#ca6367;stroke-width:1.239;stroke-linecap:butt;stroke-linejoin:round;stroke-dasharray:none;stroke-opacity:1"
       d="m 0.60803818,30.728121 v 8.739401 H 51.250983 l 0.0061,-8.710872"
       sodipodi:nodetypes="cccc" />
  </g>
</svg>
