<?xml version="1.0" encoding="UTF-8" standalone="no"?>
<!-- Created with Inkscape (http://www.inkscape.org/) -->

<svg
   width="350"
   height="230"
   viewBox="0 0 92.604164 60.854204"
   version="1.1"
   id="svg1"
   inkscape:version="1.3 (1:1.3+202307231459+0e150ed6c4)"
   sodipodi:docname="numbat.svg"
   xmlns:inkscape="http://www.inkscape.org/namespaces/inkscape"
   xmlns:sodipodi="http://sodipodi.sourceforge.net/DTD/sodipodi-0.dtd"
   xmlns="http://www.w3.org/2000/svg"
   xmlns:svg="http://www.w3.org/2000/svg">
  <sodipodi:namedview
     id="namedview1"
     pagecolor="#ffffff"
     bordercolor="#666666"
     borderopacity="1.0"
     inkscape:showpageshadow="2"
     inkscape:pageopacity="0.0"
     inkscape:pagecheckerboard="0"
     inkscape:deskcolor="#d1d1d1"
     inkscape:document-units="mm"
     inkscape:zoom="2"
     inkscape:cx="227.5"
     inkscape:cy="70.5"
     inkscape:window-width="2560"
     inkscape:window-height="1418"
     inkscape:window-x="1920"
     inkscape:window-y="0"
     inkscape:window-maximized="1"
     inkscape:current-layer="layer1" />
  <defs
     id="defs1" />
  <g
     inkscape:label="Layer 1"
     inkscape:groupmode="layer"
     id="layer1">
    <g
       id="g1"
       transform="matrix(0.63934654,0,0,0.63934654,-0.21703724,2.4311142)">
      <path
         style="fill:#7d80da;fill-opacity:1;stroke-width:0.116901"
         d="m 34.267185,33.629894 c 0.2611,-1.868832 0.393548,-2.645501 0.636835,-3.734449 0.180925,-0.809813 0.43037,-1.785762 0.466177,-1.823875 0.02054,-0.02188 4.841588,1.712647 4.841588,1.712647 l 0.506113,-2.71755 5.116404,2.242771 c 0,0 6.708785,6.511149 -0.177876,6.402444 L 34.247593,33.770239 Z m 24.903372,-0.389409 c 0.663863,-0.543846 1.542259,-1.298589 1.973988,-1.69611 0.134067,-0.123454 0.278633,-0.253784 0.321242,-0.289648 0.492377,0.08399 1.045137,0.628839 1.477086,0.938648 l -0.448655,0.377757 c -0.246768,0.207758 -0.649996,0.56254 -0.896084,0.788396 l -0.44743,0.410647 h -1.313378 -1.313363 z m 20.005475,0.508651 c 0.004,-0.01089 0.14475,-0.386127 0.321641,-0.832338 0.17691,-0.446214 0.469627,-1.198474 0.6505,-1.671693 0.180869,-0.473215 0.358862,-0.934567 0.395524,-1.025223 l 0.06666,-0.164834 1.405764,0.02527 c 0.773173,0.01388 2.398956,0.05282 3.612863,0.08647 2.761328,0.07657 6.401415,0.08749 7.032789,0.02107 0.908592,-0.09555 1.398806,-0.165835 2.020058,-0.289611 1.438423,-0.286599 2.368515,-0.649414 2.905164,-1.133243 0.112455,-0.101385 0.266581,-0.199482 0.352689,-0.224451 0.386317,-0.11205 0.664387,-0.470785 0.57497,-0.74173 -0.06468,-0.195938 -0.252984,-0.388975 -0.475451,-0.487363 -0.272765,-0.120607 -0.447042,-0.141833 -0.63421,-0.07719 -0.155012,0.05352 -0.163745,0.05175 -0.598538,-0.121328 -0.242689,-0.09661 -0.937842,-0.348818 -1.544795,-0.560482 -1.866146,-0.650787 -2.746342,-1.019214 -4.339111,-1.816297 -1.861036,-0.93133 -4.34663,-2.414705 -5.518016,-3.293098 -1.959703,-1.469535 -3.653333,-2.372844 -5.191091,-2.768671 -0.323757,-0.08334 -0.399395,-0.115389 -0.385343,-0.16334 0.0097,-0.03279 0.09495,-0.556241 0.189651,-1.163195 0.09469,-0.606949 0.212831,-1.313968 0.262523,-1.571155 0.130693,-0.676379 0.180008,-1.256478 0.151041,-1.7769 C 80.367774,12.858168 80.14972,11.99451 79.524637,10.408593 79.222918,9.6430538 79.002971,9.2443181 78.762654,9.0272193 78.447349,8.7423526 78.331955,8.7542289 78.037023,9.1018786 77.619139,9.5944681 77.382997,10.008355 77.078447,10.781985 l -0.176441,0.448226 0.15097,0.299946 c 0.510519,1.014342 0.815258,1.970748 0.947804,2.974663 0.04895,0.37074 0.0567,0.626451 0.03746,1.234479 -0.06449,2.037708 -0.08801,2.659764 -0.101139,2.672528 -0.0077,0.0076 -0.09669,0.02616 -0.197445,0.04113 l -0.183171,0.02725 0.02483,-0.912228 c 0.0137,-0.501714 0.04379,-1.199535 0.06698,-1.550707 0.119069,-1.803357 -0.303738,-3.245806 -1.638778,-5.590963 -0.342296,-0.601294 -0.843759,-1.0865178 -1.119201,-1.0829754 -0.0447,0 -0.142184,0.093601 -0.25507,0.2434096 -0.589263,0.7820038 -1.027692,2.2954908 -1.094126,3.7770738 -0.0719,1.603025 0.490402,3.516304 1.593834,5.423191 0.106832,0.184597 0.177387,0.341257 0.156804,0.348106 -0.08989,0.02996 -0.942269,0.552992 -1.16456,0.714584 -0.134453,0.09775 -0.355824,0.223832 -0.491931,0.280214 -0.577201,0.239062 -1.2113,0.700379 -1.692549,1.231347 -0.738231,0.814508 -1.203754,1.547026 -2.287326,3.599169 -0.557576,1.055997 -0.787814,1.399212 -1.060133,1.906934 -0.06777,0.126353 -0.306822,0.585782 -0.618595,1.038345 l -0.240597,0.29206 -1.694823,-1.935618 c 0.61268,-0.901842 1.321263,-1.77251 1.757153,-2.752341 C 71.957192,16.673871 64.433517,9.0869661 63.229365,7.0933052 61.086956,3.5462184 68.002752,17.977255 64.07752,21.987879 64.064341,22.001233 57.257795,15.048671 53.202062,10.507077 51.356455,8.4403683 50.01286,6.9318416 50.008583,6.9174948 c -0.013,-0.043523 1.420305,-1.0198713 2.335516,-1.5909927 1.975167,-1.2325668 4.305995,-2.3913986 6.519137,-3.2411701 0.786674,-0.3020546 1.680319,-0.6152124 1.697255,-0.5947685 0.0069,0.00808 0.396027,1.1131822 0.865094,2.4556768 0.469067,1.3425034 0.700029,1.7493499 0.700029,1.7493499 l 0.841152,-0.3405686 c 0,0 -0.202661,-0.4273308 -0.659339,-1.7310233 -0.456673,-1.303696 -0.82296,-2.3895289 -0.81396,-2.4129652 0.03008,-0.078419 1.805997,-0.55181264 3.172376,-0.84564406 2.219201,-0.47723247 5.191631,-0.82234315 7.093968,-0.82363286 l 0.53307,-3.5318e-4 v 2.6372962 l 0.0035,1.8281172 h 0.935209 l -0.0035,-1.8281172 v -2.63729093 h 0.519568 c 1.882942,0 4.777889,0.33190079 7.02844,0.80579652 1.080846,0.22759218 3.100995,0.74697931 3.246951,0.83480101 0.02567,0.015462 -0.265087,0.8944107 -0.811553,2.4532116 -0.46837,1.3360267 -0.619696,1.8310323 -0.61212,1.8432933 0.02094,0.033842 0.872526,0.3206729 0.890447,0.2998987 0.0086,-0.010015 0.171423,-0.5029301 0.637652,-1.8387951 0.466226,-1.3358633 0.853532,-2.43469 0.860685,-2.4418397 0.02553,-0.025531 1.254119,0.4165246 2.099764,0.755489 2.389615,0.957835 4.383263,1.9786481 6.527775,3.34243 0.724379,0.4606507 1.907831,1.2752433 1.907831,1.3131791 0,0.014408 -1.036869,1.186116 -2.304151,2.6035704 l -0.766277,0.8263949 0.09293,0.07599 c 0.05111,0.0418 0.210423,0.180969 0.354036,0.309308 l 0.261097,0.233336 0.758272,-0.818304 c 1.262886,-1.4129963 2.313983,-2.5928254 2.335774,-2.6218544 0.03221,-0.042909 0.109028,0.00133 0.411492,0.236845 1.876294,1.4612185 3.926587,3.4200324 5.519227,5.2730024 0.70174,0.816439 1.90588,2.357258 1.90277,2.4348 -0.001,0.01878 -1.14545,0.858886 -2.54378,1.866904 -1.39832,1.008018 -1.1051,0.791905 -1.4254,1.058401 -0.0424,0.03527 0.51856,0.724436 0.55506,0.716453 1.04171,-0.792325 0.0527,-0.02771 1.43323,-1.025868 1.38054,-0.998175 2.5265,-1.814856 2.5466,-1.814856 0.0511,0 0.87332,1.255739 1.40839,2.150984 1.34402,2.248704 2.46846,4.648326 3.33057,7.107595 0.24481,0.698356 0.46881,1.404827 0.45055,1.421021 -0.007,0.0058 -1.51828,0.663169 -3.35972,1.461078 -1.84142,0.7979 -1.395,0.597161 -1.41358,0.613413 -0.0327,0.02862 0.20528,0.900733 0.24691,0.885525 0.49196,-0.179699 0.65565,-0.272681 1.46587,-0.601017 1.8399,-0.745609 3.32248,-1.426477 3.33706,-1.411888 0.0456,0.04556 0.42924,1.607373 0.6059,2.466409 0.23292,1.13266 0.54453,3.132176 0.54453,3.433571 0,0.04402 -2.40639,-0.01952 -16.046632,-0.01952 -8.826527,0 -16.066853,0.02955 -16.062854,0.0187 z m -30.106391,0.300812 c -0.179525,-0.104811 -4.812457,-3.470424 -9.309665,-5.2775 -0.343308,-0.13795 -0.67299,-0.270167 -0.985074,-0.395037 -1.697408,-0.679171 -3.100447,-1.248521 -3.117864,-1.265226 -0.0174,-0.01669 0.136773,-0.532917 0.342628,-1.147144 0.901271,-2.689153 2.043717,-5.16911 3.495035,-7.586868 0.545791,-0.909232 1.332772,-2.115144 1.380335,-2.115144 0.01529,0 1.769729,1.273272 3.970668,2.859791 4.819341,3.473972 12.334153,8.899653 12.334153,8.923711 0,0.01669 -2.998465,2.353564 -5.385149,5.024145 -0.215119,0.240709 -0.61613,0.716325 -0.637618,0.715693 -0.02147,-0.0013 -2.056586,0.281607 -2.087449,0.263579 z m 12.24302,-2.65903 1.511345,-1.492517 c 0.658905,-0.650696 0.991419,-1.039442 1.574756,-1.739495 0.404843,-0.485838 1.440275,-1.607469 1.642481,-1.8967 0.333401,-0.476857 1.930242,1.679403 1.694823,1.935617 -0.04233,0.04604 -0.462168,0.602651 -0.809776,0.965315 -0.455485,0.475217 -0.965735,0.900516 -1.441755,1.201722 -0.455613,0.288292 -1.149658,0.766888 -1.502841,1.036309 -0.116742,0.08905 -1.250366,0.98555 -1.26735,0.984614 z M 44.120197,19.969123 45.376609,18.320991 c 0,0 -3.807901,-2.744207 -3.843343,-2.770337 -0.08297,-0.06115 -0.09611,-0.08982 -0.06649,-0.145171 0.02033,-0.03795 0.248695,-0.344475 0.507537,-0.681208 1.956349,-2.544994 4.112734,-4.7414434 6.644786,-6.7682695 l 0.607617,-0.4863677 0.0998,0.1040732 c 0.03609,0.037637 3.023175,3.316689 3.023175,3.316689 l 1.918552,-1.2760661 9.809271,12.3735941 c -1.598452,2.045538 -4.94982,4.378098 -6.897663,6.058603 -2.769724,2.389575 -9.420468,-5.821988 -13.059658,-8.077408 z"
         id="path26"
         sodipodi:nodetypes="cscccccccsssccscccssssscssssscsssssssscssssssscssssscsssccsscscsssccccsssssscsccscssccccccssssscsssssscssccscscsscssssssssscssssscssscssssscccssssssscccccscscscccsc" />
      <path
         style="fill:#282a36;fill-opacity:1;stroke-width:0.116901"
         d="m 34.940536,88.010179 c -1.554285,-0.144891 -3.043573,-0.699842 -4.040123,-1.505421 -1.321523,-1.06827 -2.194791,-2.549177 -2.563218,-4.346737 -0.213298,-1.040677 -0.199491,-0.12015 -0.213237,-14.224566 l -0.01265,-12.952682 h 2.582258 2.582248 v 12.766623 c 0,8.577937 0.01265,12.870629 0.03874,13.083609 0.171037,1.398996 0.744912,1.940797 2.179139,2.057361 0.454336,0.03693 1.076148,-0.0044 1.429433,-0.09467 0.960102,-0.24574 1.429601,-0.91029 1.549824,-2.19369 0.02716,-0.290066 0.03982,-4.416293 0.0399,-13.021921 V 54.98078 h 2.563038 2.563057 l -0.01177,13.046204 c -0.0091,10.182792 -0.02188,13.111888 -0.05828,13.345467 -0.28131,1.805967 -0.837691,3.106412 -1.836896,4.293381 -0.993414,1.180112 -2.576048,1.999109 -4.397629,2.275723 -0.568621,0.08634 -1.81955,0.122206 -2.394143,0.06863 z M 4.1720708,71.327853 v -16.34792 l 1.4988978,0.0098 1.4988978,0.0098 3.9021126,8.22224 c 2.146169,4.52223 3.912561,8.232678 3.925326,8.245447 0.01283,0.01283 0.02319,-3.691445 0.02319,-8.231581 v -8.254814 h 2.562477 2.56248 v 16.347933 16.347921 l -1.499507,-0.0098 -1.499504,-0.0098 -3.884835,-8.211154 c -2.136652,-4.51614 -3.9017811,-8.236412 -3.9225114,-8.267273 -0.025355,-0.03778 -0.038393,2.648545 -0.039904,8.220509 l -0.00228,8.276621 H 6.7344336 4.1719531 Z m 47.6583722,0 v -16.3475 l 1.468284,0.0013 1.468284,0.0013 3.908619,9.033224 c 2.149739,4.968275 3.918384,9.03322 3.930323,9.03322 0.01195,0 1.780129,-4.061159 3.929324,-9.02479 l 3.907618,-9.024795 1.486121,-0.0098 1.486112,-0.0098 V 71.328145 87.67606 h -2.581092 -2.5811 l -0.0095,-8.119984 -0.0095,-8.119987 -1.960512,5.26759 c -1.078273,2.897182 -2.009815,5.398054 -2.070089,5.557507 l -0.109591,0.289917 h -1.487875 -1.48786 l -0.0745,-0.196395 c -0.04099,-0.108027 -0.973382,-2.611648 -2.07202,-5.563622 l -1.997506,-5.367223 -0.0095,8.126099 -0.0095,8.126098 h -2.562402 -2.562398 z m 29.964179,0 V 54.977079 l 4.086877,0.01283 c 4.533635,0.01423 4.347236,0.0049 5.399406,0.272085 1.697038,0.430937 3.113914,1.404268 4.025219,2.765145 0.57186,0.853964 1.00083,2.018679 1.199328,3.256299 0.07132,0.444743 0.07931,0.681376 0.09357,2.76823 0.01687,2.461897 -0.0035,2.930602 -0.160828,3.713012 -0.230412,1.145864 -0.669575,2.061276 -1.36922,2.854041 -0.165256,0.18723 -0.294708,0.344055 -0.287682,0.348472 0.007,0.0044 0.159352,0.129657 0.338522,0.278294 1.151093,0.955029 1.839352,2.31319 2.109361,4.162452 0.08146,0.558043 0.120642,4.376079 0.05387,5.249236 -0.09915,1.296381 -0.38678,2.322483 -0.962182,3.432683 -0.407052,0.785391 -1.20793,1.687344 -1.99546,2.247327 -0.662143,0.470794 -1.587278,0.875799 -2.486602,1.08856 -0.966083,0.228546 -0.86937,0.224463 -5.658027,0.239252 l -4.386143,0.01353 z m 8.777941,11.117794 c 1.073031,-0.235448 1.491701,-0.830491 1.584623,-2.252166 0.04609,-0.705032 0.04565,-3.045302 -0.0013,-3.740842 -0.09631,-1.445711 -0.531776,-2.116713 -1.559138,-2.402467 -0.275981,-0.07675 -0.385789,-0.08206 -1.966343,-0.09502 l -1.674026,-0.0137 v 4.308716 4.308708 L 88.593,82.539826 c 1.455337,-0.01687 1.674539,-0.02734 1.978952,-0.09416 z M 89.893555,68.693198 c 0.985455,-0.286069 1.426244,-0.922443 1.555445,-2.245606 0.05273,-0.539991 0.0227,-4.211514 -0.03693,-4.518217 -0.170544,-0.87682 -0.516342,-1.384803 -1.088307,-1.598673 -0.469765,-0.175675 -0.663849,-0.196054 -2.048113,-0.215159 l -1.318649,-0.0182 v 4.346148 4.34615 L 88.313054,68.774 c 1.14588,-0.01318 1.390849,-0.02576 1.58051,-0.08079 z m 13.747615,18.935475 c 0,-0.02585 1.46706,-7.382349 3.26013,-16.347755 l 3.26013,-16.300741 h 2.56998 2.56998 l 3.26014,16.300741 c 1.79308,8.965406 3.26013,16.321896 3.26013,16.347755 0,0.03737 -0.53411,0.04505 -2.60899,0.03743 l -2.609,-0.0097 -0.45798,-2.543509 c -0.25189,-1.398933 -0.4661,-2.564677 -0.47602,-2.590533 -0.0142,-0.0372 -0.63011,-0.04704 -2.94957,-0.04704 h -2.93152 l -0.3483,1.935887 c -0.19155,1.064741 -0.40165,2.23048 -0.46687,2.590538 l -0.11857,0.654649 -2.60683,0.0097 c -2.07315,0.0076 -2.60684,-2.3e-5 -2.60684,-0.03743 z M 114.7757,77.284974 c -0.01,-0.036 -0.46783,-2.641038 -1.01736,-5.788959 -0.54952,-3.147922 -1.0096,-5.735266 -1.02239,-5.749669 -0.0128,-0.01441 -0.4765,2.561182 -1.03048,5.723493 -0.55398,3.162328 -1.01467,5.779131 -1.02374,5.815135 -0.0156,0.06176 0.10043,0.06547 2.04784,0.06547 1.94805,0 2.06333,-0.0035 2.04613,-0.06547 z m 16.21103,-3.394816 v -13.78502 h -2.61858 -2.6186 v -2.562477 -2.562484 h 7.79967 7.79966 v 2.562484 2.562477 h -2.59989 -2.59989 v 13.78502 13.785018 h -2.58118 -2.58119 z"
         id="path27" />
      <path
         style="fill:#ef767a;fill-opacity:1;stroke-width:0.116901"
         d="m 29.310552,40.036095 v -6.26592 h 10.923281 c 6.007799,0 10.923257,0.0072 10.923257,0.01617 0,0.009 -0.125035,0.159597 -0.277859,0.334886 -1.095448,1.256398 -2.565088,3.274479 -3.397287,4.665094 -1.509604,2.522601 -2.425319,5.043872 -2.519036,6.935829 -0.01124,0.226323 -0.02806,0.44937 -0.03743,0.495664 l -0.01704,0.08417 h -7.798953 -7.798961 z m 22.933079,6.227165 c -0.585754,-0.122224 -1.072777,-0.64227 -1.145339,-1.223037 -0.05689,-0.455377 0.139233,-1.562538 0.432559,-2.441648 0.903612,-2.708351 3.18131,-5.633422 6.663602,-8.557548 l 0.322543,-0.270852 h 1.316301 1.316284 l -0.55099,0.551778 c -0.884677,0.885936 -1.777965,1.813846 -1.937351,2.214592 2.231509,0.500008 5.889764,3.052703 5.803316,4.596742 -1.810602,-1.407407 -4.949665,-3.886696 -6.434699,-3.72585 -1.66318,2.227425 -3.004905,4.62523 -3.917077,7.308747 -0.144715,0.425746 -0.297349,0.829465 -0.339185,0.897171 -0.127636,0.20653 -0.469036,0.490567 -0.688176,0.572562 -0.243997,0.09128 -0.6126,0.125159 -0.841788,0.07735 z m 25.936538,-0.120239 c 0.07805,-0.516714 0.07199,-0.797838 -0.02687,-1.247549 -0.253339,-1.152635 -0.357885,-1.990268 -0.387049,-3.101186 -0.02611,-0.994502 0.01353,-1.522195 0.216524,-2.880449 0.267189,-1.788078 0.631431,-3.447515 1.014424,-4.621591 l 0.164184,-0.503366 18.524505,-0.0093 18.524483,-0.0093 v 6.265955 6.265953 H 97.18327 78.156146 Z M 62.94555,32.198809 63.720559,31.56527 c 2.625641,1.35312 4.276361,4.147953 4.057075,5.500741 -0.880382,-1.535782 -2.512712,-3.935735 -4.832084,-4.867202 z m 4.790516,-4.00099 c 0.127496,-0.146173 0.565921,-0.81267 0.565921,-0.81267 0,0 4.204021,3.589529 2.95715,6.720635 -0.299289,-2.642754 -2.240943,-4.472433 -3.523071,-5.907965 z m 26.178897,0.0953 c -0.542071,-0.08408 -0.922401,-0.17151 -1.833012,-0.421405 -0.483506,-0.132679 -1.552453,-0.417713 -2.375441,-0.633385 -1.935733,-0.507272 -2.553837,-0.688515 -3.75955,-1.102367 -1.363538,-0.468041 -1.576894,-0.513302 -2.637296,-0.559479 -0.473216,-0.02059 -1.044619,-0.0548 -1.269795,-0.076 -1.632026,-0.153606 -2.645607,-0.665483 -3.440747,-1.737633 -0.121855,-0.164289 -0.294158,-0.38531 -0.382936,-0.491142 -0.172723,-0.20592 -0.538901,-0.471509 -0.665319,-0.482569 -0.251327,-0.022 -1.17363,-0.249701 -1.254167,-0.309648 -0.128813,-0.09587 -0.1829,-0.252693 -0.111418,-0.323068 0.110979,-0.109239 1.280903,-0.293855 1.756269,-0.277127 0.209814,0.0074 0.285905,-0.01037 0.554893,-0.129727 0.42142,-0.186954 0.957283,-0.341869 1.449462,-0.419048 0.587151,-0.09207 1.468832,-0.06144 1.963702,0.06819 1.046757,0.274227 1.626715,0.691251 2.481104,1.784042 0.843351,1.078676 1.152763,1.350319 2.023857,1.776727 0.634073,0.310387 1.291586,0.563733 2.300619,0.886465 0.380631,0.121732 1.466411,0.475182 2.412846,0.785414 2.168194,0.710736 2.632176,0.852794 3.53332,1.081876 0.761881,0.19368 0.899583,0.259837 0.899583,0.432159 0,0.05052 -0.03454,0.104249 -0.08416,0.130922 -0.122997,0.06608 -1.171263,0.07738 -1.561807,0.01687 z m -12.04295,-3.149161 c 0.329063,-0.09666 0.614619,-0.26981 0.851123,-0.516108 0.904514,-0.941956 0.638478,-2.440694 -0.535726,-3.017953 -0.756981,-0.372156 -1.602414,-0.216886 -2.193396,0.40281 -0.565757,0.593261 -0.683793,1.448489 -0.303535,2.199383 0.117129,0.231291 0.531993,0.651874 0.757438,0.767878 0.434373,0.223491 0.999835,0.288604 1.424096,0.16399 z M 80.990341,24.14187 c -0.434626,-0.205465 -0.634458,-0.656789 -0.496924,-1.122277 0.06052,-0.204846 0.378782,-0.526044 0.575296,-0.580602 0.179455,-0.04983 0.501458,-0.05368 0.501458,-0.006 0,0.01922 -0.01511,0.07468 -0.03354,0.123191 -0.08244,0.216842 0.18681,0.479812 0.405942,0.396495 0.05229,-0.01989 0.12182,-0.06034 0.154484,-0.08991 0.05254,-0.04755 0.06491,-0.04184 0.106902,0.04936 0.07113,0.154432 0.09112,0.492762 0.04038,0.682961 -0.03221,0.120784 -0.09947,0.221411 -0.237966,0.356175 -0.300118,0.29202 -0.659076,0.359365 -1.016025,0.19062 z m -15.172008,5.995646 c 0.161127,-0.168366 0.805461,-0.673631 0.805461,-0.673631 0,0 3.513414,3.023281 2.872202,6.066666 -0.66267,-2.527307 -2.075168,-4.113874 -3.677663,-5.393035 z"
         id="path28"
         sodipodi:nodetypes="ccssscsccccccscscccscccscscssssscccccccsccccccccssssssssssscsssssssssssssssssscssssssssscccccc" />
      <path
         d="m 60.435969,34.417221 c 0.0974,-0.207408 0.601577,-0.609626 0.713612,-0.647046 0,0 5.379723,2.294568 4.834343,5.30838 -0.784433,-2.495679 -4.512101,-4.256752 -5.547955,-4.661334 z"
         style="fill:#ef767a;fill-opacity:1;stroke-width:0.116901"
         id="path29"
         sodipodi:nodetypes="cccc" />
    </g>
  </g>
</svg>
